<?xml version="1.0" encoding="utf-8"?>
<!-- Generator: Adobe Illustrator 20.1.0, SVG Export Plug-In . SVG Version: 6.00 Build 0)  -->
<svg version="1.2" baseProfile="tiny" id="Layer_1" xmlns="http://www.w3.org/2000/svg" xmlns:xlink="http://www.w3.org/1999/xlink"
	 x="0px" y="0px" viewBox="0 0 13.1 12.4" xml:space="preserve">
<path fill="#AEA293" d="M3.9,0l2.6,2.1L2.7,4.6L0,2.4L3.9,0z M10.6,9.8l-4.1,2.6L2.4,9.8V9.2l1.6,1c0.1,0.1,0.1,0.1,0.2,0.1
	c0.1,0,0.1,0,0.2-0.1l2.1-1.8l2.2,1.8c0.1,0.1,0.1,0.1,0.2,0.1c0,0,0,0,0.1,0l1.6-1C10.6,9.3,10.6,9.8,10.6,9.8z M12.8,6.5L9,9
	L6.6,7L4.2,9L0.4,6.5l2.4-1.9L6.6,7l3.8-2.4L6.6,2.2l2.6-2.1l3.9,2.4l-2.6,2.2L12.8,6.5z"/>
</svg>
