<?xml version="1.0" encoding="utf-8"?>
<!-- Generator: Adobe Illustrator 16.0.4, SVG Export Plug-In . SVG Version: 6.00 Build 0)  -->
<!DOCTYPE svg PUBLIC "-//W3C//DTD SVG 1.1//EN" "http://www.w3.org/Graphics/SVG/1.1/DTD/svg11.dtd">
<svg version="1.1" id="Layer_2" xmlns="http://www.w3.org/2000/svg" xmlns:xlink="http://www.w3.org/1999/xlink" x="0px" y="0px"
	 width="500px" height="595.281px" viewBox="0 0 500 595.281" enable-background="new 0 0 500 595.281" xml:space="preserve">
<g>
	<path fill="#706761" d="M475,297.64c0,124.283-100.717,225-225,225s-225-100.717-225-225c0-124.284,100.717-225,225-225
		S475,173.357,475,297.64z"/>
	<path fill="#FFFFFF" d="M433.742,244.323c4.252,13.388-3.188,27.675-16.556,31.865l-66.357,20.992
		c-13.389,4.19-27.665-3.229-31.906-16.577l0,0c-4.201-13.377,3.209-27.655,16.587-31.896l66.388-20.951
		C415.245,223.516,429.512,230.925,433.742,244.323L433.742,244.323z"/>
	<path fill="#A37B62" d="M370.257,299.46c0,62.842-50.936,113.767-113.768,113.767c-62.831,0-113.767-50.925-113.767-113.767
		s50.936-113.768,113.767-113.768C319.321,185.692,370.257,236.618,370.257,299.46z"/>
	<path opacity="0.5" fill="#706761" d="M359.229,290.63c-24.875-65.162-63.22-83.22-111.549-81.534
		c-58.58,1.982-84.947,46.255-93.9,82.086l-11.058-18.253l41.41-62.392l56.332-18.795l48.605,4.978l45.284,14.911l18.651,43.025
		L359.229,290.63z"/>
	<path fill="#FFFFFF" d="M255.171,173.898c-68.319,0-123.721,55.422-123.721,123.742c0,68.319,55.401,123.742,123.721,123.742
		c68.3,0,123.701-55.423,123.701-123.742C378.872,229.321,323.471,173.898,255.171,173.898z M255.171,399.256
		c-56.106,0-101.646-45.478-101.646-101.615s45.54-101.616,101.646-101.616c56.076,0,101.637,45.479,101.637,101.616
		S311.247,399.256,255.171,399.256z"/>
	
		<path fill="none" stroke="#FFFFFF" stroke-width="9" stroke-linecap="round" stroke-miterlimit="10" stroke-dasharray="2,15,2,15,2,15" d="
		M459.302,297.64c0,115.617-93.685,209.303-209.302,209.303c-115.556,0-209.302-93.686-209.302-209.303
		c0-115.556,93.747-209.303,209.302-209.303C365.617,88.338,459.302,182.085,459.302,297.64z"/>
	<path fill="#FFFFFF" d="M258.656,384.826c-42.075,0-88.954-35.003-88.954-84.651c0-2.902,2.34-5.427,5.233-5.427
		c2.892,0,5.232,3.005,5.232,5.897c0,84.17,78.438,82.862,78.438,82.862S259.801,384.826,258.656,384.826z"/>
</g>
</svg>
