<?xml version="1.0" encoding="utf-8"?>
<!-- Generator: Adobe Illustrator 21.0.0, SVG Export Plug-In . SVG Version: 6.00 Build 0)  -->
<svg version="1.1" id="Layer_1" xmlns="http://www.w3.org/2000/svg" xmlns:xlink="http://www.w3.org/1999/xlink" x="0px" y="0px"
	 viewBox="0 0 285.1 69.3" style="enable-background:new 0 0 285.1 69.3;" xml:space="preserve">
<style type="text/css">
	.st0{fill:#4D5955;}
</style>
<title>doah</title>
<path class="st0" d="M131.9,35.4c0,20-22.5,35.1-42.3,24.1c0,0,19.9-40.3,25-50.8C126.1,13.9,131.9,23.8,131.9,35.4z M96.5,7.4
	c-0.6,1.2-18.9,38.2-19.1,38.5c-1.4-3.5-2.2-7.2-2.2-10.9C75.1,22,83.9,10.6,96.5,7.4L96.5,7.4z M83.1,61.2c5.9,4.5,13,7,20.5,7
	c16.8,0,33.3-13.4,33.3-33.3c0-9.7-4.2-18.9-11.5-25.3c-3.9-3.3-8.4-5.7-13.3-7L83.1,61.2z M70.2,35c0,7.8,2.8,15.3,7.8,21.2
	c0,0,27-54.6,27-54.6s-0.4,0-1.5,0C85.1,1.6,70.2,16.5,70.2,35C70.2,35,70.2,35,70.2,35z"/>
<path class="st0" d="M160.1,46.2l8.6,17.5h-17.1L160.1,46.2z M143.7,68.5h32.8l-16.4-33.5L143.7,68.5z M169.2,27.4L169.2,27.4
	l7.6-15.5l25.3,51.8H187L169.2,27.4z M176.8,0.8l-13.1,26.6c0.2,0.4,20.1,41.2,20.2,41.2h26l-11.8-24.1L176.8,0.8"/>
<polygon class="st0" points="284.3,0.8 279.2,0.8 279.2,20.1 256.4,30.4 233.6,20.1 233.6,0.8 228.5,0.8 228.5,23.4 228.5,23.4 
	256.4,35.9 256.4,35.9 256.4,36 284.3,23.4 284.3,23.4 284.3,23.4 "/>
<polygon class="st0" points="228.5,29.2 228.5,67.9 233.6,67.9 233.6,37.1 256.4,47.4 256.4,47.4 256.4,47.4 279.2,37.1 279.2,67.9 
	284.3,67.9 284.3,29.2 256.4,41.8 "/>
<path class="st0" d="M0.9,1.5L0.9,1.5v42l23.6-42L0.9,1.5z M5.9,6.5h10c-1.1,2-9.9,17.6-10,17.7L5.9,6.5z"/>
<path class="st0" d="M30,2.1c0,0-29.2,52.5-29.2,52.6v13.5l0,0h22.7c18.2-0.2,32.9-15,32.9-33.2C56.3,12.4,37.2,3.2,30,2.1z
	 M5.9,63.3V56c0,0,25.9-46.8,26.4-47.7V8.2c11.4,4,19,14.7,18.9,26.8c0.1,15.6-12.4,28.2-28,28.3L5.9,63.3z"/>
</svg>
