<?xml version="1.0" encoding="utf-8"?>
<!-- Generator: Adobe Illustrator 20.1.0, SVG Export Plug-In . SVG Version: 6.00 Build 0)  -->
<svg version="1.2" baseProfile="tiny" id="Layer_1" xmlns="http://www.w3.org/2000/svg" xmlns:xlink="http://www.w3.org/1999/xlink"
	 x="0px" y="0px" viewBox="0 0 12.9 13" xml:space="preserve">
<g>
	<path fill="#AEA293" d="M11.6,2.7c0.1,0.1,0.1,0.1,0.1,0.2C11.7,2.8,11.7,2.7,11.6,2.7z"/>
	<path fill="#AEA293" d="M2.8,10.4l0.6-2.3c0.1-0.3,0.5-0.6,0.8-0.6h0.4c1.9,0,3.4-0.7,4.5-1.4c1.1-0.7,1.6-1.8,1.6-3.1
		c0-0.6-0.1-1-0.3-1.4c-0.2-0.4-0.4-0.7-0.8-1C9.2,0.4,8.8,0.2,8.2,0.1C7.6,0.1,7,0,6.3,0H3C2.6,0,2.3,0.3,2.2,0.6L0,10.3
		c-0.1,0.4,0.1,0.6,0.5,0.7h1.6C2.4,11,2.7,10.7,2.8,10.4z M4.2,4.8l0.4-2.1c0.1-0.3,0.5-0.6,0.8-0.6h0.5c0.6,0,1.1,0.1,1.4,0.3
		c0.3,0.2,0.4,0.6,0.4,1c0,0.7-0.3,1.2-0.7,1.5C6.5,5.2,5.8,5.4,5,5.4H4.6C4.3,5.3,4,5.1,4.2,4.8z"/>
	<path fill="#AEA293" d="M12.6,3.8c-0.2-0.4-0.5-0.7-0.9-0.9c0.1,0.3,0.2,0.7,0.2,1.2c0,1.2-0.5,2.3-1.6,3.1C9.2,8,7.6,8.4,5.7,8.4
		H5.2C4.8,8.4,4.5,8.7,4.4,9l-0.5,2.4C3.8,11.7,3.4,12,3.1,12h-1L2,12.4C1.9,12.7,2.1,13,2.4,13h1.5c0.4,0,0.7-0.3,0.8-0.6l0.6-2.3
		c0.1-0.3,0.5-0.6,0.8-0.6h0.4c2,0,3.5-0.4,4.6-1.2c1.1-0.8,1.6-1.9,1.8-3.1C12.9,4.6,12.8,4.2,12.6,3.8z"/>
</g>
</svg>
